# xmcd CD database file
#
# Track frame offsets:
#	150
#	38727
#	64910
#	83880
#
# Disc length: 1299 seconds
#
# Revision: 0
# Processed by: cddbd v1.5.1PL0 Copyright (c) Steve Scherf et al.
# Submitted via: CDex 1.51
#
DISCID=2c051104
DTITLE=Various Artist - DEATH ROCK MOVEMENT 2001
DYEAR=1900
DGENRE=Hardcore
TTITLE0=The other one in my mind/BAT CAVE
TTITLE1=present moment/マイナーリーグ
TTITLE2=記憶の持続性/SPANAM
TTITLE3=The princess of the darkside/GERONIMO
EXTD=
EXTT0=
EXTT1=
EXTT2=
EXTT3=
PLAYORDER=
